<svg xmlns="http://www.w3.org/2000/svg" viewBox="-107.882 -374.882 839.211 839.211">
  <title>Shellbell monogram</title>
  <path d="M161.700 33L122.700 33L18-249L57-249" fill="#4A4A55"/>
  <path d="M251.700 3Q226.500 3 211.950-11.250Q197.400-25.500 197.400-48.600Q197.400-72.600 213.900-86.850Q230.400-101.100 259.200-101.100L299.400-101.100L299.400-112.800Q299.400-137.700 270.300-137.700Q257.100-137.700 249.300-132.600Q241.500-127.500 240.600-118.200L204.600-118.200Q205.800-140.400 223.350-154.200Q240.900-168 270.600-168Q302.100-168 319.500-153.300Q336.900-138.600 336.900-111.900L336.900 0L300.300 0L300.300-30.900Q298.200-15 285.300-6Q272.400 3 251.700 3M263.700-27.600Q280.200-27.600 289.800-35.700Q299.400-43.800 299.400-57.300L299.400-76.800L261-76.800Q248.700-76.800 241.500-69.900Q234.300-63 234.300-52.200Q234.300-41.100 241.950-34.350Q249.600-27.600 263.700-27.600" fill="#F59E0B"/>
</svg>
